<svg width="29" height="12" viewBox="0 0 29 12" fill="none" xmlns="http://www.w3.org/2000/svg">
    <path d="M23.7571 0.860003C21.4831 0.260003 19.1409 0.820002 17.6287 2.15L14.411 4.66L12.6828 6H12.6942L9.6357 8.39C8.71475 9.2 7.41858 9.54 6.08831 9.31C4.66707 9.06 3.49598 8.06 3.16625 6.82C2.57502 4.59 4.48516 2.62 6.90694 2.62C7.9416 2.62 8.90803 2.97 9.68118 3.65L10.2156 4.06C10.6476 4.4 11.2957 4.4 11.7278 4.06C12.2394 3.66 12.2394 2.96 11.7278 2.56L11.2502 2.2C10.0905 1.18 8.5442 0.620003 6.90694 0.620003C3.51872 0.620003 0.767212 3.04 0.767212 6C0.767212 8.96 3.51872 11.38 6.90694 11.38C8.5442 11.38 10.0905 10.82 11.1934 9.85L14.411 7.35L14.4224 7.36L16.1393 6H16.1279L19.1864 3.61C20.1073 2.8 21.4035 2.46 22.7338 2.69C24.155 2.94 25.3261 3.94 25.6558 5.18C26.2471 7.41 24.3369 9.38 21.9152 9.38C20.8919 9.38 19.9141 9.03 19.1409 8.35L18.5952 7.93C18.1631 7.59 17.515 7.59 17.083 7.93C16.5713 8.33 16.5713 9.03 17.083 9.43L17.5605 9.8C18.7202 10.81 20.2552 11.37 21.9038 11.37C25.6217 11.37 28.5665 8.47 27.9639 5.12C27.6228 3.13 25.9515 1.43 23.7571 0.860003Z" fill="#61339C" />
</svg>