<svg width="23" height="20" viewBox="0 0 23 20" fill="none" xmlns="http://www.w3.org/2000/svg">
    <path fill-rule="evenodd" clip-rule="evenodd" d="M11.0816 0.419604C11.2154 0.552277 11.3216 0.709888 11.3941 0.883407C11.4666 1.05693 11.5039 1.24295 11.5039 1.43081C11.5039 1.61868 11.4666 1.8047 11.3941 1.97822C11.3216 2.15174 11.2154 2.30935 11.0816 2.44202L3.47231 10.0004L11.0816 17.5587C11.2152 17.6915 11.3212 17.8492 11.3936 18.0227C11.4659 18.1962 11.5031 18.3821 11.5031 18.5699C11.5031 18.7577 11.4659 18.9437 11.3936 19.1172C11.3212 19.2907 11.2152 19.4484 11.0816 19.5811C10.9479 19.7139 10.7893 19.8193 10.6147 19.8911C10.4401 19.963 10.2529 20 10.0639 20C9.87495 20 9.68781 19.963 9.5132 19.8911C9.3386 19.8193 9.17995 19.7139 9.04631 19.5811L0.422272 11.0116C0.288418 10.8789 0.182219 10.7213 0.109758 10.5478C0.0372979 10.3743 0 10.1882 0 10.0004C0 9.81251 0.0372979 9.62649 0.109758 9.45297C0.182219 9.27945 0.288418 9.12184 0.422272 8.98917L9.04631 0.419604C9.17982 0.286595 9.33844 0.181067 9.51306 0.109064C9.68768 0.0370616 9.87489 0 10.0639 0C10.253 0 10.4402 0.0370616 10.6148 0.109064C10.7895 0.181067 10.9481 0.286595 11.0816 0.419604Z" fill="#828282" />
    <path fill-rule="evenodd" clip-rule="evenodd" d="M1.43991 10.0004C1.43991 9.62158 1.59134 9.25829 1.8609 8.99044C2.13045 8.72259 2.49604 8.57211 2.87725 8.57211H21.5627C21.9439 8.57211 22.3095 8.72259 22.579 8.99044C22.8486 9.25829 23 9.62158 23 10.0004C23 10.3792 22.8486 10.7425 22.579 11.0103C22.3095 11.2782 21.9439 11.4286 21.5627 11.4286H2.87725C2.49604 11.4286 2.13045 11.2782 1.8609 11.0103C1.59134 10.7425 1.43991 10.3792 1.43991 10.0004Z" fill="#828282" />
</svg>