<svg width="15" height="12" viewBox="0 0 15 12" fill="none" xmlns="http://www.w3.org/2000/svg">
    <path d="M12.8655 0H1.98766C1.23981 0 0.62793 0.54 0.62793 1.2V8.4C0.62793 9.06 1.23981 9.6 1.98766 9.6H11.5057L14.2252 12V1.2C14.2252 0.54 13.6133 0 12.8655 0ZM10.8259 7.2H4.02725C3.65332 7.2 3.34738 6.93 3.34738 6.6C3.34738 6.27 3.65332 6 4.02725 6H10.8259C11.1998 6 11.5057 6.27 11.5057 6.6C11.5057 6.93 11.1998 7.2 10.8259 7.2ZM10.8259 5.4H4.02725C3.65332 5.4 3.34738 5.13 3.34738 4.8C3.34738 4.47 3.65332 4.2 4.02725 4.2H10.8259C11.1998 4.2 11.5057 4.47 11.5057 4.8C11.5057 5.13 11.1998 5.4 10.8259 5.4ZM10.8259 3.6H4.02725C3.65332 3.6 3.34738 3.33 3.34738 3C3.34738 2.67 3.65332 2.4 4.02725 2.4H10.8259C11.1998 2.4 11.5057 2.67 11.5057 3C11.5057 3.33 11.1998 3.6 10.8259 3.6Z" fill="#4AABED" />
</svg>