<svg width="26" height="14" viewBox="0 0 26 14" fill="none" xmlns="http://www.w3.org/2000/svg">
    <path d="M17.1369 6C19.0243 6 20.5365 4.66 20.5365 3C20.5365 1.34 19.0243 0 17.1369 0C15.2495 0 13.726 1.34 13.726 3C13.726 4.66 15.2495 6 17.1369 6ZM8.04106 6C9.92845 6 11.4406 4.66 11.4406 3C11.4406 1.34 9.92845 0 8.04106 0C6.15366 0 4.6301 1.34 4.6301 3C4.6301 4.66 6.15366 6 8.04106 6ZM8.04106 8C5.39188 8 0.0821533 9.17 0.0821533 11.5V13C0.0821533 13.55 0.593797 14 1.21914 14H14.863C15.4883 14 16 13.55 16 13V11.5C16 9.17 10.6902 8 8.04106 8ZM17.1369 8C16.8072 8 16.432 8.02 16.0341 8.05C16.0568 8.06 16.0682 8.08 16.0795 8.09C17.3757 8.92 18.2739 10.03 18.2739 11.5V13C18.2739 13.35 18.1943 13.69 18.0693 14H23.9589C24.5842 14 25.0959 13.55 25.0959 13V11.5C25.0959 9.17 19.7861 8 17.1369 8Z" fill="#447D91" />
</svg>