<svg width="13" height="13" viewBox="0 0 13 13" fill="none" xmlns="http://www.w3.org/2000/svg">
    <path d="M0 9.67509C0 7.55836 0 5.44164 0 3.32491C0.0193309 3.19442 0.033829 3.05911 0.0628253 2.92862C0.396283 1.45465 1.2855 0.512268 2.74015 0.10632C2.92862 0.0531599 3.12677 0.033829 3.32491 0C5.44164 0 7.55836 0 9.67509 0C9.80558 0.0193309 9.94089 0.033829 10.0714 0.0628253C11.5454 0.396283 12.4877 1.2855 12.8937 2.74015C12.9468 2.92862 12.9662 3.12677 13 3.32491C13 5.44164 13 7.55836 13 9.67509C12.9807 9.80558 12.9662 9.94089 12.9372 10.0714C12.6037 11.5454 11.7145 12.4877 10.2599 12.8937C10.0714 12.9468 9.87323 12.9662 9.67509 13C7.55836 13 5.44164 13 3.32491 13C3.19442 12.9807 3.05911 12.9662 2.92862 12.9372C1.45465 12.6037 0.512268 11.7145 0.10632 10.2599C0.0531599 10.0714 0.033829 9.87323 0 9.67509ZM6.50483 1.15502C5.56729 1.15502 4.62491 1.15502 3.68736 1.15502C3.38773 1.15502 3.09777 1.18401 2.81264 1.2855C1.77844 1.65279 1.15502 2.54201 1.15019 3.66803C1.14535 5.55762 1.15019 7.45204 1.15019 9.34164C1.15019 9.63643 1.18401 9.92156 1.28067 10.2019C1.64796 11.2312 2.53717 11.8498 3.65353 11.8546C5.54796 11.8595 7.44721 11.8595 9.34164 11.8498C9.62677 11.8498 9.92156 11.8063 10.1874 11.7193C11.2167 11.3714 11.8401 10.4773 11.845 9.3658C11.8498 7.46171 11.8498 5.55762 11.845 3.65353C11.845 2.80297 11.5019 2.1119 10.8108 1.60929C10.3662 1.2855 9.86357 1.15985 9.31747 1.15985C8.38476 1.15502 7.44721 1.15502 6.50483 1.15502Z" fill="black" />
    <path d="M9.85249 6.50345C9.84766 8.34955 8.33019 9.85735 6.49376 9.85252C4.64766 9.84286 3.13502 8.32538 3.14952 6.48895C3.16402 4.64286 4.66699 3.14472 6.50342 3.14955C8.34469 3.14955 9.85732 4.66702 9.85249 6.50345ZM8.69747 6.49379C8.68781 5.28077 7.70193 4.2949 6.49859 4.30457C5.28558 4.31423 4.2997 5.30011 4.30937 6.50345C4.31903 7.71646 5.30491 8.70234 6.50825 8.69267C7.72127 8.68784 8.70231 7.70196 8.69747 6.49379Z" fill="black" />
    <path d="M9.98982 2.17363C10.4538 2.1688 10.8404 2.55058 10.8404 3.01452C10.8404 3.47363 10.4586 3.85541 9.99948 3.85541C9.53554 3.86025 9.14893 3.47363 9.14893 3.00969C9.14893 2.55541 9.52588 2.17846 9.98982 2.17363Z" fill="black" />
</svg>