<svg width="160" height="56" viewBox="0 0 160 56" fill="none" xmlns="http://www.w3.org/2000/svg">
    <path d="M28.14 55.753C43.507 55.753 55.964 43.327 55.964 27.997C55.964 12.668 43.507 0.240997 28.139 0.240997C12.772 0.240997 0.315002 12.668 0.315002 27.997C0.315002 43.327 12.772 55.753 28.139 55.753H28.14Z" fill="black" />
    <path fill-rule="evenodd" clip-rule="evenodd" d="M28.682 25.494C28.678 21.285 32.094 17.869 36.313 17.862C38.3404 17.8599 40.286 18.6618 41.723 20.092C42.4335 20.7993 42.9974 21.6398 43.3825 22.5654C43.7675 23.491 43.9662 24.4835 43.967 25.486C43.967 29.696 40.548 33.108 36.329 33.11C32.109 33.112 28.687 29.703 28.682 25.494ZM31.225 25.477C31.2245 26.8272 31.7601 28.1224 32.7142 29.0778C33.6683 30.0332 34.9628 30.5707 36.313 30.572C37.665 30.5749 38.9628 30.0408 39.9211 29.087C40.8793 28.1333 41.4196 26.838 41.423 25.486C41.4217 24.136 40.8844 22.8417 39.9292 21.8876C38.974 20.9335 37.6791 20.3977 36.329 20.398C34.9786 20.3951 33.6823 20.9286 32.7252 21.8812C31.7681 22.8339 31.2285 24.1276 31.225 25.478V25.477Z" fill="white" />
    <path d="M24.845 22.95C24.508 22.949 24.185 23.08 23.945 23.314L18.49 28.774L13.035 23.314C12.7943 23.0793 12.4712 22.9482 12.135 22.949C11.8021 22.9463 11.4818 23.0758 11.2443 23.309C11.0067 23.5422 10.8714 23.8601 10.868 24.193V36.88C10.868 37.58 11.438 38.147 12.139 38.147C12.4753 38.147 12.7979 38.0136 13.0359 37.7761C13.274 37.5386 13.4082 37.2163 13.409 36.88V27.245L17.592 31.443C18.092 31.931 18.89 31.931 19.39 31.443L23.574 27.249V36.879C23.574 37.579 24.143 38.147 24.844 38.147C25.1805 38.1473 25.5033 38.014 25.7416 37.7764C25.9799 37.5389 26.1142 37.2165 26.115 36.88V24.194C26.1139 24.0287 26.0802 23.8652 26.0157 23.713C25.9512 23.5608 25.8572 23.4228 25.7392 23.3071C25.6211 23.1914 25.4813 23.1002 25.3279 23.0387C25.1744 22.9772 25.0103 22.9468 24.845 22.949V22.95ZM42.688 35.658H29.928C29.7043 35.6521 29.483 35.7061 29.2872 35.8144C29.0913 35.9227 28.9279 36.0814 28.814 36.274C28.7003 36.4665 28.6404 36.686 28.6404 36.9095C28.6404 37.133 28.7003 37.3525 28.814 37.545C29.046 37.938 29.473 38.174 29.929 38.162H42.688C43.144 38.174 43.571 37.938 43.802 37.545C43.9154 37.3526 43.9753 37.1333 43.9753 36.91C43.9753 36.6866 43.9154 36.4674 43.802 36.275C43.6881 36.0822 43.5248 35.9233 43.329 35.8148C43.1331 35.7064 42.9118 35.6522 42.688 35.658Z" fill="white" />
    <path d="M71.523 37.882V22.474H75.338L77.825 29.326C77.982 29.784 78.132 30.253 78.275 30.733C78.417 31.213 78.567 31.691 78.725 32.166H78.82C78.978 31.693 79.124 31.216 79.258 30.733C79.392 30.25 79.538 29.781 79.697 29.326L82.137 22.474H85.927V37.882H82.752V32.234C82.752 31.855 82.768 31.438 82.8 30.982C82.832 30.525 82.872 30.065 82.919 29.599C82.966 29.135 83.013 28.677 83.061 28.229C83.108 27.78 83.155 27.366 83.202 26.989H83.108L81.852 30.651L79.649 36.535H77.731L75.527 30.651L74.295 26.988H74.2C74.248 27.366 74.295 27.779 74.342 28.228C74.389 28.678 74.437 29.135 74.484 29.599C74.531 30.064 74.569 30.527 74.604 30.982C74.638 31.437 74.651 31.856 74.651 32.234V37.882H71.523Z" fill="black" />
    <path fill-rule="evenodd" clip-rule="evenodd" d="M92.996 37.61C93.8996 37.9886 94.8714 38.1775 95.851 38.165C96.8305 38.1766 97.802 37.9866 98.705 37.607C99.5531 37.2463 100.31 36.7011 100.921 36.011C101.564 35.2729 102.052 34.4133 102.357 33.483C102.695 32.491 102.864 31.364 102.864 30.103C102.864 28.859 102.695 27.744 102.357 26.759C102.054 25.8386 101.565 24.9902 100.921 24.266C100.308 23.5906 99.5503 23.0616 98.705 22.718C96.8681 22.0088 94.8329 22.0088 92.996 22.718C92.1535 23.0606 91.3972 23.5851 90.781 24.254C90.162 24.924 89.683 25.751 89.345 26.736C89.007 27.723 88.838 28.847 88.838 30.107C88.838 31.367 89.007 32.493 89.345 33.487C89.649 34.417 90.138 35.277 90.781 36.015C91.3917 36.7046 92.1484 37.2495 92.996 37.61ZM98.363 33.806C97.746 34.712 96.909 35.164 95.851 35.164C94.793 35.164 93.956 34.712 93.34 33.806C92.724 32.899 92.417 31.666 92.417 30.107C92.416 28.563 92.724 27.357 93.34 26.491C93.956 25.625 94.793 25.191 95.851 25.191C96.91 25.191 97.747 25.625 98.363 26.491C98.978 27.358 99.286 28.563 99.286 30.107C99.287 31.667 98.979 32.9 98.363 33.806ZM105.777 22.474V37.882L110.328 37.885C111.377 37.8986 112.422 37.7387 113.419 37.412C114.309 37.1169 115.122 36.6274 115.8 35.979C116.464 35.341 116.978 34.533 117.341 33.557C117.704 32.58 117.886 31.43 117.886 30.107C117.886 28.783 117.704 27.641 117.341 26.68C116.978 25.719 116.456 24.927 115.777 24.305C115.075 23.6699 114.242 23.1977 113.337 22.922C112.388 22.623 111.321 22.474 110.139 22.474H105.777ZM109.923 35.067H109.26L109.258 25.286H109.922C110.53 25.2789 111.136 25.3584 111.722 25.522C112.239 25.6681 112.711 25.9403 113.096 26.314C113.475 26.684 113.771 27.181 113.984 27.804C114.198 28.426 114.304 29.194 114.304 30.108C114.303 31.037 114.196 31.816 113.984 32.447C113.772 33.077 113.476 33.585 113.096 33.971C112.714 34.3577 112.243 34.6447 111.724 34.807C111.141 34.9873 110.533 35.075 109.923 35.067ZM123.45 22.474L118.618 37.882H122.171L123.119 34.218H127.833L128.781 37.881H132.477L127.644 22.474H123.45ZM123.827 31.501L124.209 30.083C124.429 29.312 124.638 28.497 124.836 27.638L125.416 25.121H125.512C125.717 25.924 125.923 26.759 126.128 27.625C126.333 28.492 126.546 29.311 126.767 30.083L127.122 31.501H123.827Z" fill="black" />
    <path d="M138.873 38.165C137.841 38.1612 136.818 37.9733 135.852 37.61C134.852 37.2424 133.938 36.6756 133.164 35.944L135.153 33.557C135.706 34.03 136.325 34.4201 136.99 34.715C137.61 35.003 138.284 35.156 138.968 35.165C139.693 35.165 140.234 35.03 140.59 34.762C140.938 34.511 141.138 34.103 141.123 33.675C141.128 33.4602 141.075 33.248 140.969 33.061C140.855 32.8764 140.701 32.7193 140.519 32.601C140.295 32.4518 140.057 32.3246 139.808 32.221L138.897 31.831L136.882 30.981C136.478 30.8186 136.093 30.6128 135.734 30.367C135.365 30.1171 135.03 29.8191 134.739 29.481C134.439 29.131 134.203 28.731 134.04 28.301C133.859 27.8133 133.771 27.2961 133.78 26.776C133.776 26.1585 133.914 25.5483 134.182 24.992C134.453 24.4284 134.84 23.9285 135.318 23.525C135.833 23.0933 136.424 22.761 137.06 22.545C137.772 22.3015 138.521 22.1814 139.274 22.19C140.188 22.193 141.092 22.37 141.939 22.71C142.806 23.05 143.592 23.564 144.249 24.222L142.475 26.42C142.012 26.0516 141.502 25.7457 140.959 25.51C140.425 25.2921 139.853 25.1836 139.277 25.191C138.677 25.191 138.198 25.313 137.84 25.557C137.67 25.6683 137.532 25.8215 137.439 26.0017C137.345 26.1819 137.3 26.3832 137.307 26.586C137.301 26.8 137.363 27.011 137.485 27.188C137.62 27.368 137.789 27.521 137.982 27.638C138.22 27.784 138.47 27.91 138.728 28.015L139.653 28.405L141.643 29.209C142.59 29.587 143.337 30.107 143.882 30.769C144.427 31.43 144.7 32.304 144.699 33.392C144.703 34.0264 144.569 34.6541 144.306 35.2314C144.043 35.8087 143.657 36.3218 143.176 36.735C142.635 37.1938 142.012 37.5466 141.34 37.775C140.546 38.0461 139.712 38.178 138.873 38.165ZM147.33 37.882V22.474H150.812V28.408H156.143V22.474H159.653V37.882H156.147V31.454H150.816V37.882H147.33Z" fill="black" />
</svg>